<svg xmlns="http://www.w3.org/2000/svg" width="100" height="60" fill="none"><path fill="#000" d="M93.346 30.607c1.012 0 1.828.967 1.876 2.175-.93-.647-2.032-1.11-3.228-1.486.34-.419.822-.689 1.352-.689ZM42.378 44.46c2.976 0 5.394 2.4 5.394 5.344 0 2.948-2.418 5.344-5.394 5.344-2.994 0-5.428-2.396-5.428-5.344.002-2.944 2.434-5.344 5.428-5.344Zm-.01 7.6a2.264 2.264 0 0 0 2.264-2.256 2.256 2.256 0 0 0-2.264-2.26 2.261 2.261 0 0 0-2.278 2.26c0 1.237 1.018 2.256 2.278 2.256ZM82.554 44.963c2.97 0 5.39 2.4 5.39 5.344 0 2.948-2.42 5.344-5.39 5.344a5.408 5.408 0 0 1-3.858-1.583 5.264 5.264 0 0 1-1.576-3.761c0-1.425.558-2.763 1.572-3.765a5.426 5.426 0 0 1 3.862-1.579Zm-.012 7.6a2.261 2.261 0 0 0 2.262-2.256 2.254 2.254 0 0 0-2.262-2.251 2.257 2.257 0 0 0-2.276 2.251 2.266 2.266 0 0 0 2.276 2.256Z"/><path fill="#000" d="M82.554 42.854c4.106 0 7.442 3.342 7.442 7.453 0 4.115-3.336 7.461-7.442 7.461a7.418 7.418 0 0 1-5.284-2.183 7.388 7.388 0 0 1-2.202-5.28c0-2.01.784-3.887 2.202-5.294a7.505 7.505 0 0 1 5.284-2.157Zm-3.856 11.214a5.413 5.413 0 0 0 3.858 1.583c2.97 0 5.39-2.395 5.39-5.344 0-2.944-2.42-5.344-5.39-5.344-1.47 0-2.84.56-3.862 1.58a5.256 5.256 0 0 0-1.572 3.764c0 1.423.56 2.75 1.576 3.761Z"/><path fill="#000" d="M82.542 48.056a2.252 2.252 0 1 1 0 4.507 2.265 2.265 0 0 1-2.276-2.256 2.258 2.258 0 0 1 2.276-2.251ZM20.502 34.574H9.136v1.744h11.366v-1.744ZM20.634 45.31H9.264v1.744h11.37V45.31ZM20.634 39.584H1.456v2.014h19.178v-2.014ZM42.378 42.347c4.106 0 7.448 3.346 7.448 7.457 0 4.107-3.342 7.453-7.448 7.453-4.122 0-7.478-3.346-7.478-7.453 0-4.111 3.358-7.457 7.478-7.457Zm0 12.801c2.976 0 5.394-2.396 5.394-5.344 0-2.944-2.418-5.344-5.394-5.344-2.994 0-5.428 2.4-5.428 5.344.002 2.948 2.434 5.344 5.428 5.344Z"/><path fill="#000" d="M42.368 47.544a2.254 2.254 0 0 1 2.264 2.26 2.264 2.264 0 0 1-2.264 2.255c-1.26 0-2.278-1.018-2.278-2.255a2.263 2.263 0 0 1 2.278-2.26ZM60.968 12.74v17.086H58.25V12.584c.94.004 1.84.063 2.718.156Z"/><path fill="#000" d="M58.25 11.598h2.718v1.144a26.805 26.805 0 0 0-2.718-.157v-.987ZM60.968 31.747H58.25v-1.921h2.718v1.921ZM95.22 32.782c-.046-1.208-.864-2.175-1.876-2.175-.53 0-1.012.27-1.354.689a19.2 19.2 0 0 0-2.126-.524c.684-1.369 1.974-2.311 3.478-2.311 2.192 0 3.974 1.981 3.974 4.418 0 .588-.11 1.157-.298 1.668a7.61 7.61 0 0 0-1.798-1.764Z"/><path fill="#000" d="M93.346 37.298c-2.196 0-3.974-1.982-3.974-4.419 0-.769.194-1.478.496-2.105.736.145 1.452.31 2.126.524a2.491 2.491 0 0 0-.542 1.583c0 1.248.846 2.272 1.894 2.272 1.042 0 1.892-1.023 1.892-2.272 0-.037-.016-.064-.018-.097a7.725 7.725 0 0 1 1.8 1.763c-.596 1.614-2.014 2.75-3.674 2.75Z"/><path fill="#000" d="M23.418 32.486a3.07 3.07 0 0 0 2.152.87c1.694 0 3.062-1.337 3.062-2.988 0-1.36-.938-2.5-2.222-2.856 1.67-1.61 3.9-2.593 6.756-2.556-2.598-7.736 1.092-13.195 11.116-16.33 6.42-1.335 12.802-1.743 19.178 0 11.194 1.97 18.7 8.815 21.692 21.521 1.636.14 3.228.334 4.716.63a4.841 4.841 0 0 0-.496 2.104c0 2.437 1.78 4.419 3.974 4.419 1.66 0 3.078-1.136 3.676-2.75.12.16.26.3.372.474.506 1.156.866 2.26 1.15 3.337H95.59v7.474h2.894c-.88 2.505-2.683 4.648-5.52 6.363H91.79c.046-.313.046-.672.046-.988 0-5.948-4.256-10.776-9.508-10.776-5.29 0-9.543 4.828-9.543 10.776 0 .314 0 .672.042.988h-20.91c0-.313.04-.672.04-.988 0-5.948-4.291-10.776-9.541-10.776S32.91 45.262 32.91 51.21c0 .314 0 .672.043.988h-1.996c-6.889.204-10.24-11.583-7.538-19.712h-.001Zm20.864-2.66H58.25v1.921h2.718v-1.921h17.806c-2.706-10.414-8.636-16.123-17.806-17.086v-1.144H58.25v.988c-.748 0-1.512.02-2.296.072-8.902.535-12.976 6.847-11.672 17.17Z"/></svg>