<svg xmlns="http://www.w3.org/2000/svg" width="60" height="60" fill="none"><path fill="#000" d="M23.39.672c-5.794.432-11.455 2.543-15.966 5.962-.995.743-1.187.851-1.235.671-.036-.12-.228-.648-.444-1.175-.48-1.176-.851-1.476-1.631-1.26-.576.156-.852.504-.852 1.092 0 .6-.42-.588 15.534 43.877 1.679 4.702 3.142 8.708 3.25 8.9.564 1.103 2.207.744 2.207-.48 0-.312-.971-3.179-2.927-8.637L18.4 41.454l.624-.564c2.015-1.823 5.277-3.802 7.557-4.594 1.715-.6 2.89-.756 4.99-.684 2.183.084 4.21.408 6.465 1.043 4.078 1.152 5.134 1.344 7.509 1.332 2.615 0 4.714-.36 7.437-1.284 1.667-.552 3.167-1.247 3.478-1.607.24-.264.24-.456.276-16.853.012-10.46-.012-16.709-.084-16.9-.276-.708-1.295-.924-1.98-.409-1.835 1.38-4.546 2.891-6.512 3.646-1.368.516-3.131.888-4.535.96-2.338.132-4.09-.384-8.696-2.543C30.611.984 27.564.372 23.389.672Zm3.79 2.495c.06.108 2.47 9.116 2.47 9.248 0 .036-.72.06-1.583.036a24.751 24.751 0 0 0-5.385.456c-1.224.24-3.802.912-4.054 1.068-.108.072.372 1.439 1.895 5.35 1.127 2.878 2.051 5.3 2.051 5.385-.012.072-.647.444-1.427.815-1.631.792-3.49 1.992-5.278 3.431-.684.552-1.308 1.031-1.38 1.055-.084.036-.947-2.219-2.146-5.553l-2.016-5.614.396-.336c1.404-1.187 3.97-2.759 6.238-3.814.78-.36 1.415-.707 1.415-.78 0-.071-.755-2.063-1.68-4.426-.923-2.374-1.643-4.342-1.583-4.39.132-.12 1.716-.672 2.915-1.007 1.296-.372 2.639-.636 4.186-.84 1.296-.168 4.87-.228 4.966-.084Zm9.92 3.515c1.38.564 2.59.935 3.695 1.127 1.271.228 3.502.228 4.75 0 .528-.096 1.02-.18 1.091-.18.072 0 .252 1.595.468 4.402.192 2.435.36 4.438.372 4.462.024.024.54-.132 1.152-.348 1.247-.432 3.442-1.499 4.714-2.278.468-.276.875-.528.935-.564.048-.024.084 2.326.084 5.23v5.29l-.564.287c-.875.432-3.083 1.224-4.342 1.56-.612.168-1.14.324-1.175.348-.024.024.12 2.087.324 4.57.204 2.495.336 4.57.3 4.618-.192.312-4.595.456-5.818.18-.288-.06-.336-.216-1.355-4.69-.576-2.543-1.02-4.654-.996-4.69.036-.036.732.036 1.536.144.815.108 1.907.192 2.434.192.9 0 3.37-.276 3.479-.384.048-.048-.672-9.236-.732-9.308-.012-.024-.576.048-1.247.168-2.315.384-4.69.096-7.065-.84-.432-.167-.78-.3-.804-.275-.012.012.492 2.278 1.115 5.037.636 2.759 1.116 5.038 1.092 5.074-.036.024-1.056-.204-2.268-.528a126.247 126.247 0 0 0-3.646-.924c-.792-.168-1.547-.36-1.68-.42-.203-.072-.48-.971-1.715-5.65-.804-3.058-1.463-5.613-1.463-5.673.012-.396 3.095.576 6.273 1.968 1.2.528 2.183.935 2.195.923.024-.024-1.848-8.264-2.04-8.996-.024-.108-.036-.204-.012-.204.013 0 .421.168.913.372Zm-5.41 17.152c.552.072 1.02.132 1.044.144.012.012.563 2.076 1.235 4.583.66 2.506 1.235 4.63 1.26 4.726.06.132-.06.156-.625.084-3.118-.36-5.565-.3-7.437.18-.552.144-1.031.228-1.067.192-.18-.18-3.395-8.9-3.323-8.973.144-.144 3.299-.935 4.222-1.055.877-.12 3.096-.06 4.691.12Z"/></svg>